<svg width="1440" height="1079" viewBox="0 0 1440 1079" fill="none" xmlns="http://www.w3.org/2000/svg">
<path d="M107.235 20.4923H107.281L107.301 20.5017L198.383 37.9136C201.211 37.0495 204.18 36.58 207.225 36.58C214.112 36.58 220.869 38.9372 226.243 43.2292L354.855 67.8162L354.94 67.7974L355.025 67.8537L491.314 93.9058L491.408 93.9152L491.436 93.934L608.096 116.239C616.431 112.51 627.237 110.125 641.228 110.125C659.007 110.125 673.6 117.225 683.448 130.645L811.872 155.195L812.248 155.176L812.257 155.27L919.934 175.856L919.952 175.819L920.131 175.875C932.102 167.78 944.506 163.412 955.951 163.412C961.683 163.412 967.424 164.192 973.006 165.723L973.316 165.807L973.325 165.901C1001.87 165.901 1027.82 178.852 1037.99 198.142L1673.22 319.575C1693.35 303.806 1715.07 295.025 1734.78 295.025C1743.26 295.025 1751.76 296.171 1760.03 298.434C1762.04 298.265 1764.06 298.181 1766.04 298.181C1785.24 298.181 1803.87 303.647 1819.95 313.996C1835.53 324.026 1848 338.142 1856.02 354.812L2220.76 424.534L2220.86 424.544L2220.87 424.562L2818.61 538.82L2819 538.895V1037.51C2819 1037.54 2819 1037.56 2819 1037.58V1078.48H2346.98L2346.9 1078.48L2346.88 1078.48L1660.41 1078.48L1313.39 869.007L981.181 922.013L980.636 922.097V921.759L938.934 885.573V734.192L1062.11 717.315L1020.75 692.352C991.724 695.733 964.54 693.939 939.939 687.018C932.347 684.877 925.064 682.266 918.101 679.204C917.444 678.941 901.535 672.593 882.45 658.89L882.14 658.665C872.744 651.894 862.604 643.357 853.161 632.885C843.182 621.831 835.129 609.914 829.021 597.282L612.7 631.796L612.155 631.88V631.552L589.462 612.966V497.563L677.866 485.363L582.932 428.056L390.178 442.04L389.67 442.078V441.787L377.051 431.033V347.806L402.459 345.974C399.189 343.213 395.853 339.973 392.696 336.188C386.306 328.534 380.01 317.865 376.693 303.572L328.958 274.758L196.991 279.604L196.503 279.623V279.285L191.466 272.279V218.898L217.401 218.287C213.962 213.46 211.293 208.219 209.508 202.65L203.945 199.288L105.994 202.425L102.508 197.588V176.73H76.9023L71.3582 172.015V135.595H80.5293C80.022 135.153 79.5239 134.693 79.0354 134.233H77.626H24.5532L19.0093 129.518V93.0981H28.0208L0.253662 76.3343L0.0280762 76.1934V0L107.235 20.4923ZM8.10913 2.49814L46.8987 14.848C49.1914 15.0546 51.6064 15.28 54.1343 15.5148C70.5972 17.0268 87.1541 18.5952 97.293 19.5531L8.10913 2.49814ZM16.2751 47.2206L68.9807 90.3558C74.0833 76.8696 86.1296 66.7737 100.732 64.4822L99.2852 63.9657L16.2751 47.2206ZM93.1677 61.7774L1.82275 29.0574L14.7808 45.9621L93.1677 61.7774ZM40.7625 111.975L35.9045 98.0944H26.1697L40.7625 111.975ZM25.9722 99.2026L33.2922 123.132L41.2043 113.703L25.9722 99.2026ZM42.1909 113.224L65.335 115.638L37.0603 98.5734L42.1909 113.224ZM44.1831 114.37L75.5117 131.068V131.059L66.0022 116.633L44.1831 114.37ZM91.8054 79.9125L69.573 91.4546C68.0977 95.6151 67.2896 100.085 67.2896 104.734C67.2896 108.651 67.8628 112.426 68.9153 116.004L69.0562 116.492L80.426 110.923C80.1912 109.28 80.0596 107.608 80.0596 105.908C80.0596 95.5681 84.6074 86.2705 91.8054 79.9125ZM396.849 356.408L422.775 358.615C421.168 357.93 418.875 356.878 416.178 355.394L396.849 356.408ZM411.546 354.661L396.615 352.06L391.653 355.76L411.546 354.661ZM693.991 564.083L800.117 574.752L708.105 503.752L693.991 564.083ZM707.109 503.893L615.087 557.19L693.042 564.008L707.109 503.893ZM801.883 574.94L802.691 575.024L818.619 570.347L714.438 507.452L801.883 574.94ZM922.198 628.255C936.697 642.079 954.457 652.382 974.425 657.745L926.342 478.958L920.657 626.63L922.367 628.33L922.198 628.255ZM194.624 40.3742C189.287 42.8911 184.729 46.9858 181.656 52.245C183.696 53.5598 185.594 55.1188 187.285 56.9032L194.624 40.3742ZM190.423 52.1323C197.405 43.5861 208.108 41.905 215.982 42.0271L195.854 39.9046L190.423 52.1323ZM141.138 78.9076L185.058 102.687L185.255 102.678L185.293 102.762L253.606 119.225C230.237 110.82 163.013 86.6368 141.138 78.9076ZM259.62 120.399L214.075 81.2554L145.686 79.518C173.697 89.473 245.582 115.347 259.62 120.399ZM142.435 78.3722C143.374 75.2543 144.502 72.5401 145.761 70.1547L153.673 50.4231C143.309 54.546 136.345 64.2568 136.214 76.184C137.586 76.663 139.7 77.4049 142.435 78.3722ZM135.556 76.9541C126.677 73.9113 120.634 72.8031 117.421 72.3992L173.735 97.6249L135.556 76.9541ZM133.94 75.4233C126.592 68.6426 117.111 64.9236 107.047 64.9236C106.098 64.9236 105.167 64.9705 104.237 65.0363L114.827 71.2253C115.776 71.2441 122.053 71.5352 133.94 75.4233ZM102.621 65.1866C87.7834 66.8395 75.3894 76.7099 70.0803 90.1398L96.3816 76.4846L96.3911 76.4939C101.268 73.4417 106.953 71.5634 113.042 71.2723L102.621 65.1866ZM107.047 63.9938C117.693 63.9938 127.682 68.0604 135.302 75.4421C135.312 75.2636 135.312 75.0852 135.321 74.9162L104.904 48.7044L103.241 64.191C104.491 64.0596 105.759 63.9938 107.047 63.9938ZM135.406 73.7422C136.365 62.9232 142.857 54.1609 152.301 49.9911L105.844 48.2724L135.406 73.7422ZM154.519 49.1083C157.779 47.9719 161.341 47.3521 165.109 47.3521C166.227 47.3521 167.336 47.4178 168.435 47.5399L140.527 35.669L106.361 33.7813L154.519 49.1083ZM165.118 48.2912C162.224 48.2912 159.471 48.6763 156.877 49.3712L177.963 51.5876L172.363 49.2022C170.004 48.6105 167.571 48.2912 165.118 48.2912ZM154.819 50.1038L148.599 65.6092C159.245 51.2495 175.333 54.2736 175.549 54.3206L185.969 56.9032C184.409 55.3536 182.68 53.9919 180.839 52.8367L154.819 50.1038ZM187.539 58.5749L187.163 58.1617L175.333 55.2315C174.477 55.0625 156.614 51.7379 146.701 70.3143L143.412 78.5131L212.928 80.2787L187.567 58.4904L187.539 58.5749ZM214.422 80.3257L283.873 82.0913L189.23 58.6782L214.422 80.3257ZM215.55 81.293L261.584 120.85C261.688 120.831 261.801 120.813 261.904 120.784L287.294 83.115L215.55 81.293ZM266.912 237.173C266.931 237.183 266.95 237.192 266.969 237.202L285.424 247.523L233.526 195.738C235.65 216.691 250.393 230.459 266.818 237.127L266.912 237.173ZM410.136 270.814C405.306 301.552 417.71 321.34 428.958 332.535C439.247 342.772 450.476 347.89 453.896 349.299L416.93 247.363C413.773 254.304 411.499 262.127 410.136 270.814ZM415.662 247.889L383.675 275.96L411.846 307.159C408.445 297.232 406.932 285.155 409.206 270.673C410.531 262.277 412.692 254.679 415.662 247.889ZM453.276 350.06C449.621 348.529 438.514 343.363 428.319 333.23C423.564 328.497 418.603 322.251 414.788 314.315L425.829 358.568L453.276 350.06ZM426.684 359.291C444.03 368.918 466.188 373.388 490.816 372.458L454.639 350.614L426.684 359.291ZM889.808 482.63C892.589 475.408 895.972 468.496 899.881 461.978L835.053 500.7L852.531 558.129L889.808 482.63ZM852.992 559.303L909.353 615.379C908.742 614.609 908.141 613.83 907.549 613.041C890.005 589.712 880.731 561.604 880.731 531.776C880.731 517.21 883.005 503.188 887.186 490.087L852.992 559.303ZM900.774 460.354L925.769 374.064L924.557 374.703C880.515 400.098 846.518 446.285 834.969 499.657L900.774 460.354ZM2083.12 527.616L2213.25 657.172L2211.64 658.543L2552.71 686.464L2083.64 527.606L2084.35 528.151L2083.12 527.616ZM873.072 241.869C848.34 243.381 836.999 244.02 831.755 244.227L953.968 268.907L918.148 239.042C916.006 239.183 894.431 240.564 873.072 241.869ZM915.235 238.291L893.877 233.004L834.32 243.175C850.116 242.395 890.212 239.897 915.235 238.291ZM687.516 181.482L693.925 189.004C708.227 179.556 723.825 174.335 738.55 174.335C740.551 174.335 742.534 174.401 744.498 174.523C732.385 172.419 710.059 170.832 688.127 181.134L688.306 181.181L687.516 181.482ZM337.058 147.494L399.612 170.278L374.25 138.365L337.058 147.494ZM373.602 137.558L360.108 120.587L335.959 146.789L373.602 137.558ZM400.721 170.165C404.038 149.025 418.302 131.556 437.481 122.85L375.247 138.121L400.721 170.165ZM335.339 147.869L272.71 141.117L435.357 184.299L335.339 147.869ZM306.876 136.91L323.847 136.008C311.574 126.025 295.76 120.334 279.231 120.334C274.007 120.334 268.923 120.906 264.037 121.958L306.876 136.91ZM306.688 137.839C305.889 137.698 287.341 134.646 269.214 139.783L331.439 146.498L306.754 137.858H306.735L306.688 137.839ZM309.207 137.727L334.108 146.442C331.364 142.948 328.272 139.755 324.899 136.891L309.207 137.727ZM414.045 199.955C413.81 200.096 413.575 200.246 413.34 200.396L406.387 215.15C417.531 203.054 431.767 193.86 447.817 188.817L445.308 187.915C441.324 188.741 437.086 189.84 432.754 191.296C427.003 193.221 420.726 195.907 414.534 199.664L414.581 199.673L414.045 199.955ZM450.157 189.652L426.449 230.665C429.963 226.627 433.938 223.067 438.411 220.034C461.132 204.651 490.393 206.66 502.233 208.313L450.157 189.652ZM507.552 209.215L559.271 227.744L557.175 224.72C539.82 201.044 507.974 185.426 476.195 185.426C467.409 185.426 458.914 186.638 450.843 188.901L507.552 209.215ZM461.038 185.699C457.167 185.99 452.384 186.544 447.094 187.558L449.33 188.356C453.135 187.239 457.044 186.347 461.038 185.699ZM445.374 186.948C459.826 183.971 470.933 184.478 471.074 184.487L471.064 184.628C472.765 184.534 474.475 184.487 476.195 184.487C504.526 184.487 532.904 196.799 551.227 216.146L548.286 211.91L461.461 145.428L425.716 179.782L445.374 186.948ZM424.438 179.322C424.927 173.884 426.223 168.136 428.328 162.239C429.409 159.214 430.734 156.491 432.256 154.03L404.996 172.24L424.438 179.322ZM433.487 152.068L441.982 123.085C421.901 131.613 407.27 149.56 404.555 171.386L433.487 152.068ZM429.202 162.548C427.21 168.136 425.951 173.583 425.434 178.749L459.76 145.747L434.211 152.762C432.228 155.608 430.527 158.848 429.202 162.548ZM460.793 144.489L457.721 136.525C449.273 139.145 441.032 143.728 435.094 151.542L460.793 144.489ZM461.696 144.226L492.63 133.998C487.452 133.35 472.84 132.092 458.633 136.262L461.696 144.226ZM462.41 144.977L546.529 209.384L494.49 134.374L462.41 144.977ZM548.718 210.924L598.126 184.928L496.087 135.031L548.718 210.924ZM549.254 211.704L557.373 223.415C558.519 224.936 559.6 226.505 560.624 228.092L610.689 209.299L598.943 185.548L549.254 211.704ZM646.622 220.766V220.635L646.735 220.56C655.521 204.5 666.834 192.291 680.591 184.074L612.005 209.816L633.674 253.627C637.075 241.325 641.397 230.355 646.622 220.766ZM634.36 254.642L646.622 259.037V222.739C641.689 232.102 637.602 242.752 634.36 254.642ZM692.074 226.054L648.06 259.553L673.177 268.551C675.893 252.237 682.668 237.615 692.074 226.054ZM674.079 268.87L694.78 276.289V224.307C684.416 236.103 676.927 251.533 674.079 268.87ZM694.771 222.823L693.399 190.554C669.606 206.942 651.734 233.933 647.74 258.624L694.771 222.823ZM678.608 201.27C679.821 200.105 681.052 198.978 682.302 197.889L647.571 221.133V254.435C651.602 235.605 662.709 216.484 678.608 201.27ZM611.122 210.154L561.817 228.655L632.865 254.106L611.122 210.154ZM611.582 208.971L683.814 181.857L599.893 185.342L611.582 208.971ZM648.445 219.414L693.126 189.512L686.614 181.867C685.787 182.28 684.951 182.693 684.124 183.144C669.606 190.977 657.673 203.129 648.445 219.414ZM695.673 221.903C706.376 210.417 719.879 202.631 734.434 200.274L694.32 190.216L695.673 221.903ZM1613.73 453.723L1681.72 427.925L1646.7 419.266L1613.73 453.723ZM1662.61 366.692L1618.43 411.302L1646.1 418.148C1646.24 401.196 1652.46 383.324 1662.61 366.692ZM1611.39 455.611L1472.65 508.241L1671.18 464.373L1612.13 455.395L1611.31 456.249L1611.39 455.611ZM1363.12 389.504L1310.64 496.727L1466.04 509.593L1481.45 387.945L1363.12 389.504ZM1480.6 387.015C1463.81 374.215 1443.8 367.443 1422.6 367.443C1402.52 367.443 1382.05 374.975 1364.26 388.555L1480.6 387.015ZM1009.06 351.478C1012.01 351.844 1014.78 352.248 1017.36 352.68L1162.34 321.209L856.29 286.178L1009.06 351.478ZM855.153 286.704L926.671 359.367C934.903 356.436 943.491 354.164 952.446 352.586C972.311 349.083 990.991 349.496 1005.78 351.093L855.153 286.704ZM1013.58 353.149L1013.83 353.441L1014.84 353.224C1014 353.093 1013.14 352.971 1012.27 352.849L1013.47 353.365L1013.58 353.149ZM987.261 402.154C993.058 401.281 998.988 400.811 1005.01 400.811C1029.43 400.811 1052.92 408.221 1073.17 422.262L1013.75 354.765L987.261 402.154ZM1016.74 353.769C1018.09 353.901 1019.43 354.051 1020.77 354.22C1019.69 354.023 1018.56 353.826 1017.39 353.628L1016.74 353.769ZM1019.83 353.093C1030.91 355.065 1037.68 357.235 1037.84 357.282C1051.04 360.418 1063.55 365.208 1075.25 371.604L1215.38 418.139L1164.97 321.584L1019.83 353.093ZM1138.89 435.259L1214.56 418.852L1079.43 373.98C1103.13 387.936 1123.33 408.588 1138.89 435.259ZM1138.54 436.246L1084.48 426.901L1231.46 469.473C1174.98 449.281 1141.1 437.166 1138.54 436.246ZM1140.36 435.907C1148.25 438.734 1185.58 452.08 1244.01 472.966L1216.08 419.491L1140.36 435.907ZM1247.02 474.046C1253.79 476.469 1260.84 478.986 1268.14 481.597C1268.26 462.758 1273.19 442.669 1282.1 423.285L1245.79 473.605C1245.9 473.643 1246.02 473.69 1246.13 473.727L1247.14 474.018L1247.02 474.046ZM1245.23 474.403L1244.95 474.788L1244.76 474.413L1198.82 481.823L1266.11 481.87C1258.89 479.287 1251.92 476.798 1245.23 474.403ZM1244.83 472.534C1255.47 422.722 1273.91 384.752 1299.81 359.169L1216.93 419.106L1244.83 472.534ZM1245.96 471.783L1284.22 418.74L1303.41 357C1276.26 382.301 1256.99 420.759 1245.96 471.783ZM1286.67 414.063C1293.82 400.595 1302.88 387.635 1313.55 375.867C1323.28 365.133 1333.81 355.929 1344.79 348.397L1304.96 355.61C1304.91 355.657 1304.85 355.713 1304.79 355.76L1286.67 414.063ZM1285.29 418.486L1285.11 419.097L1285.09 419.172L1284.68 419.726C1275.13 439.148 1269.43 459.959 1269.1 480.498C1275.53 468.928 1312.97 404.765 1345.31 349.44C1320.57 366.391 1299.09 390.988 1285.29 418.486ZM1309.3 497.319C1296.15 492.613 1283.61 488.134 1271.74 483.889L1459.54 609.838L1309.74 497.6L1309.19 497.553L1309.3 497.319ZM1309.5 496.389C1310.99 473.934 1316.73 452.653 1326.12 433.945C1321.8 437.682 1310.18 447.731 1298.62 457.658C1278.33 475.089 1271.86 480.517 1269.66 482.142C1282.19 486.631 1295.49 491.383 1309.5 496.389ZM1310.55 494.755L1361.45 390.753C1356.93 394.434 1352.58 398.51 1348.48 402.971C1326.69 426.685 1313.28 459.198 1310.55 494.755ZM1270.01 480.724C1277.92 474.328 1312.83 444.21 1327.16 431.803L1345.83 350.407C1320.75 393.307 1277.04 468.214 1270.01 480.724ZM1328.79 428.873C1334.14 419.191 1340.49 410.278 1347.78 402.342C1352.33 397.393 1357.18 392.904 1362.25 388.903L1347.08 349.139L1328.79 428.873ZM1313.82 497.938C1397.65 527.916 1505.84 566.619 1625.5 609.425L1466.29 510.561L1313.82 497.938ZM1467.01 509.387L1610.8 454.831L1482.36 388.199L1467.01 509.387ZM1613.79 454.7L1672.32 463.603L1682.59 428.601L1613.79 454.7ZM1467.67 510.307L1629.21 610.627L1671.85 465.19L1467.67 510.307ZM1629.77 612.074L1629.37 611.829L1477.31 620.535L2068.14 768.818C1919.52 715.615 1767.11 661.079 1629.8 611.961L1629.77 612.074ZM1627.16 611.022C1506.01 567.68 1396.76 528.602 1312.42 498.436L1474.36 619.765L1627.16 611.022ZM1268.46 482.809L1195.01 482.752L1468.16 616.751L1268.46 482.809ZM1242.88 473.765L1081.25 426.948L1193.05 481.794L1193.09 481.785L1193.1 481.794L1242.88 473.765ZM1137.73 435.156C1121.41 407.385 1100.01 386.217 1074.84 372.458L1069.15 370.571L1069.44 369.678L1069.53 369.707C1052.73 361.386 1034.37 356.258 1014.8 354.539L1076.44 424.562L1137.73 435.156ZM1005.01 401.75C998.941 401.75 992.964 402.22 987.129 403.122L1000.16 427.126L1074.81 424.572C1054.21 409.649 1030.12 401.75 1005.01 401.75ZM986.302 403.582L928.316 473.765L999.26 427.446L986.302 403.582ZM1012.89 354.389C1008.6 354.06 1004.28 353.882 999.89 353.882C974.34 353.882 949.683 360.85 927.47 373.078L986.208 402.136L1012.89 354.389ZM926.831 373.801L902.493 457.808C921.306 428.958 950.783 408.409 984.893 402.539L926.831 373.801ZM926.239 372.468L926.436 372.571C949.317 359.733 974.293 352.943 999.88 352.943C1003.59 352.943 1007.27 353.065 1010.89 353.29L1008.8 352.398C993.622 350.529 973.776 349.787 952.568 353.534C944.6 354.943 936.124 357.056 927.423 360.155L927.724 360.456L926.934 360.334C905.209 368.148 882.131 382.103 862.135 406.465L924.2 373.839C924.848 373.463 925.506 373.097 926.154 372.731L926.239 372.468ZM860.659 408.296C860.565 408.418 860.472 408.531 860.378 408.653L841.302 475.352C849.797 451.958 862.793 429.859 879.584 410.86C890.203 398.849 901.826 388.584 914.192 380.169L860.659 408.296ZM881.999 384.78C894.807 374.092 909.184 365.809 924.933 359.996L689.668 322.176L859.926 407.498C866.683 399.018 874.04 391.429 881.999 384.78ZM852.982 285.84L761.149 300.059L924.623 358.615L852.982 285.84ZM851.376 285.136C800.37 264.803 708.255 228.205 696.434 223.922C702.175 231.351 739.189 275.378 759.438 299.374L851.376 285.136ZM726.719 261.948C717.398 250.829 709.993 241.954 704.703 235.558C699.441 229.191 696.894 226.101 695.72 224.532V276.627L757.756 298.848C753.829 294.189 740.185 278.008 726.719 261.948ZM696.471 222.429L778.89 212.201L736.886 200.894C721.711 202.735 707.578 210.549 696.471 222.429ZM778.946 211.243C768.657 204.181 756.544 200.462 743.765 200.462C742.346 200.462 740.946 200.537 739.546 200.64L778.946 211.243ZM697.317 223.265C700.099 224.251 706.282 226.646 720.273 232.14C733.391 237.286 751.639 244.499 774.53 253.571C808.423 267.01 842.627 280.637 851.234 284.065L781.145 212.849L697.317 223.265ZM785.026 215.46L850.558 282.046L827.198 244.198L785.026 215.46ZM825.986 242.236L807.07 211.591L782.742 212.765L825.986 242.236ZM853.377 284.826L953 269.668L828.513 244.536L853.377 284.826ZM955.885 269.283L1110.54 286.61L920.169 239.512L955.885 269.283ZM957.201 270.382L957.426 270.57L955.688 270.222L856.703 285.277L1165.2 320.589L1165.47 320.533L1165.52 320.627L1319.03 338.198L1117.52 288.348L957.201 270.382ZM1166.04 321.622L1216.5 418.251L1304.07 354.924L1304.11 354.802L1304.29 354.774L1305.26 354.07C1311.35 348.67 1317.82 343.908 1324.67 339.776L1166.04 321.622ZM1328.02 338.884C1327.68 339.081 1327.35 339.287 1327.02 339.475L1327.03 339.485L1306.41 354.389L1346.71 347.082C1368.42 332.666 1391.83 324.787 1414.36 324.787C1419.61 324.787 1424.79 325.106 1429.86 325.717C1411.98 321.688 1368.84 315.724 1328.02 338.884ZM1425.59 323.876L1207.23 253.609L1326.19 338.884C1326.65 338.611 1327.11 338.33 1327.58 338.067C1365.55 316.513 1405.52 320.007 1425.59 323.876ZM1414.37 325.736C1392.49 325.736 1370.22 333.474 1349.9 346.406L1436.16 327.604C1429.09 326.374 1421.82 325.736 1414.37 325.736ZM1347.68 347.843C1347.66 347.853 1347.64 347.871 1347.61 347.881L1363.02 388.255L1436.73 328.421L1347.68 347.843ZM1372.95 381.418C1388.57 371.763 1405.71 366.495 1422.59 366.495C1443.41 366.495 1463.11 372.965 1479.77 385.212L1438.47 328.224L1372.95 381.418ZM1440.65 329.633L1482.23 387.006L1521.6 387.701L1440.65 329.633ZM1521.36 386.367C1501.23 355.319 1473.2 335.371 1440.63 328.459L1521.36 386.367ZM1483.98 387.973L1607.14 451.873L1522.94 388.659L1483.98 387.973ZM1611.59 454.033L1617.01 411.903L1525.23 389.194L1611.59 454.033ZM1612.6 453.545L1645.66 419.003L1617.92 412.138L1612.6 453.545ZM1664.46 363.489L1644.61 349.891C1630.39 368.411 1620.41 389.673 1618.13 410.269L1664.46 363.489ZM1647.04 418.373L1682.63 427.183L1665.02 364.541C1653.96 381.831 1647.13 400.624 1647.04 418.373ZM1682.89 424.638C1683.6 403.732 1691.26 383.418 1704.17 367.359L1665.83 363.95L1682.89 424.638ZM1673.26 463.744L2071.08 524.253L1683.62 428.394L1673.26 463.744ZM1672.79 465.35L1630.11 610.937L1893.12 632.472L1672.79 465.35ZM1632.99 612.102C1742.24 651.18 1860.72 693.573 1978.8 735.835C2011.65 747.593 2043.59 759.023 2074.63 770.133L1894.51 633.505L1632.99 612.102ZM2077.33 771.006L2209.3 659.285L1896.25 633.655L2077.33 771.006ZM2210.31 658.43L2211.86 657.115L2081 526.836L1902.82 633.251L2210.31 658.43ZM2210.62 659.397L2078.97 770.847L2552.8 687.412L2210.62 659.397ZM2077.44 772.143L2077.37 772.208L2077.17 772.058L1896.08 750.711L2801.48 1031.77C2726.58 1004.61 2412.69 892.148 2077.44 772.143ZM2070.16 770.293L1490.62 624.846L1891.16 749.19L2070.16 770.293ZM1475.41 621.099L1537.34 707.463L1886.06 748.579L1475.41 621.099ZM1474.15 620.967L1446.98 648.278L1535.22 706.139L1474.15 620.967ZM1473.33 620.46L1471.59 619.925L1472.39 619.878L1199.55 486.039L1446.18 647.761L1473.33 620.46ZM1192.91 482.79L1140.52 496.163L1141.13 496.849L1437.9 643.432L1192.91 482.79ZM1191.64 482.142L1078.16 426.478L1139.81 495.375L1191.64 482.142ZM1076 425.473L1001.77 428.009L1138.72 495.647L1138.79 495.628L1076 425.473ZM999.918 428.15L927.376 475.512L1136.16 495.44L999.918 428.15ZM985.212 403.432C950.435 409.367 920.488 430.686 901.873 460.532L925.891 475.239L985.212 403.432ZM858.827 410.625C846.226 427.014 834.997 447.769 826.315 474.037C824.633 479.137 823.176 484.124 821.926 488.998L833.484 499.253L858.827 410.625ZM821.673 490.021C814.108 520.187 814.653 546.061 819.756 567.924L833.221 500.277L821.673 490.021ZM825.422 473.746C833.907 448.088 845.268 426.178 859.334 408.259L688.437 322.618L821.175 488.143C822.415 483.391 823.824 478.592 825.422 473.746ZM921.456 358.484L759.204 300.36L759.063 300.378L758.969 300.275L563.33 230.186L686.925 320.777L921.456 358.484ZM560.314 229.153C515.36 234.506 433.365 244.339 419.204 246.246L684.369 320.091L560.314 229.153ZM488.721 236.788C519.626 233.069 550.485 229.388 558.416 228.439L507.289 210.126C506.894 210.032 467.597 201.401 438.928 220.823C432.641 225.087 427.323 230.393 422.972 236.676L417.842 245.551C421.403 244.95 435.084 243.24 488.721 236.788ZM417.005 245.006C418.546 241.86 420.275 238.911 422.192 236.14L449.227 189.371C431.965 194.555 416.77 204.566 405.222 217.855L417.005 245.006ZM411.856 201.354C399.114 209.75 387.077 222.851 381.148 243.316C378.451 252.613 376.788 261.188 375.932 269.095L389.229 241.315C390.037 239.493 390.892 237.69 391.803 235.934L392.151 235.211L392.179 235.22C395.525 228.9 399.555 223.002 404.179 217.63L411.856 201.354ZM413.021 199.485C419.608 195.372 426.327 192.46 432.444 190.404C436.174 189.155 439.83 188.169 443.325 187.38L273.499 142.291L413.021 199.485ZM267.674 140.92L293.204 188.122L409.901 199.222L267.674 140.92ZM266.461 140.638C266.32 140.685 266.17 140.732 266.029 140.788L255.505 145.644C247.828 150.311 241.24 157.327 237.52 167.78C234.08 177.443 232.896 186.149 233.394 193.916L292.161 188.169L266.461 140.638ZM266.969 139.398C270.492 138.271 273.969 137.492 277.23 136.966C287.463 135.304 297.019 135.801 302.413 136.346L262.533 122.437L266.969 139.398ZM263.182 120.568C267.204 119.873 271.347 119.488 275.576 119.488C276.779 119.432 277.991 119.394 279.212 119.394C298.062 119.394 315.982 126.682 328.921 139.276L288.177 83.4812L263.182 120.568ZM335.188 146.254L359.385 120.005L289.728 84.0072L335.188 146.254ZM360.259 119.394L436.165 119.761L291.926 84.0729L360.259 119.394ZM440.14 119.779L388.468 88.9189L293.195 83.4249L440.14 119.779ZM440.036 120.728L361.123 120.343L374.617 137.313L441.136 120.991L440.036 120.728ZM401.548 170.982L403.577 171.724C406.218 149.09 421.45 130.523 442.329 121.94L442.348 121.874C420.999 129.706 404.846 148.236 401.548 170.982ZM435.047 150.077C440.986 142.714 448.973 138.309 457.167 135.736L443.786 122.372C443.551 122.465 443.325 122.55 443.09 122.644L435.047 150.077ZM458.021 135.247L480.01 118.483C476.364 117.986 472.558 117.732 468.602 117.732C460.183 117.732 452.139 119.244 444.754 121.996L458.021 135.247ZM460.014 134.909C474.597 131.068 489.162 132.571 493.485 133.162L481.119 118.812L460.014 134.909ZM494.932 133.397L517.728 139.032C509.45 128.241 497.413 121.395 482.397 118.859L494.932 133.397ZM498.832 135.322L599.15 184.384L599.366 184.271L599.441 184.431L683.42 180.937L498.832 135.322ZM686.68 180.777C716.59 166.202 747.514 173.884 753.105 175.471C755.069 175.781 757.014 176.157 758.922 176.598L723.468 160.971H723.412L723.402 160.961L611.845 162.267L686.68 180.777ZM753.753 176.532L753.716 176.636C753.688 176.626 753.396 176.532 752.908 176.392C748.266 175.65 743.483 175.274 738.559 175.274C723.214 175.274 708.274 180.712 695.062 189.436L736.877 199.917L772.575 182.618L764.691 179.143C761.149 178.044 757.503 177.162 753.753 176.532ZM739.49 199.701C740.908 199.598 742.327 199.523 743.756 199.523C757.183 199.523 769.869 203.58 780.543 211.234L773.374 183.276L739.49 199.701ZM781.69 211.882L806.478 210.689C798.2 198.34 787.356 189.004 774.633 183.022L774.295 183.041L781.69 211.882ZM807.615 210.699L877.799 228.064L815.227 180.514L776.559 182.9C788.953 189.051 799.515 198.433 807.615 210.699ZM808.329 211.845L827.743 243.297C831.116 241.832 847.983 237.061 877.996 229.087L808.329 211.845ZM832.986 242.461L891.603 232.45L879.894 229.557C864.352 233.67 842.749 239.531 832.986 242.461ZM893.529 231.952C895.136 223.65 898.904 215.329 904.166 207.515L880.853 228.815L893.529 231.952ZM894.45 232.177L917.904 237.981C918.533 233.295 919.699 228.702 921.324 224.279L931.877 181.303C922.724 187.511 914.408 195.315 907.878 203.918L907.756 204.19L907.718 204.275L907.389 204.576C900.915 213.272 896.263 222.739 894.45 232.177ZM923.664 218.71C928.137 209.281 934.78 200.969 942.946 194.949C950.313 189.521 958.3 186.384 966.118 185.736L932.976 180.824L923.664 218.71ZM943.51 195.701C933.925 202.772 926.474 213.028 922.236 224.551L919.144 237.155C960.461 198.79 971.136 189.258 973.983 186.901C963.985 185.445 953.217 188.544 943.51 195.701ZM920.216 237.427L960.678 223.866C965.705 211.093 972.875 192.489 974.35 187.727C968.345 192.855 935.241 223.481 920.216 237.427ZM961.843 223.481L1035.84 198.678L975.421 187.126C974.961 189.098 972.555 196.236 961.843 223.481ZM961.044 224.739L919.981 238.498L1311.9 335.456L961.044 224.739ZM1323.56 338.151L1204.3 252.66L1200.56 251.458L965.771 225.246L1323.56 338.151ZM1438.15 326.928C1438.19 326.938 1438.23 326.956 1438.27 326.966L1454.08 279.764L1205.25 251.984L1438.15 326.928ZM1439.2 327.135L1621.56 341.307L1455 279.971L1439.2 327.135ZM1445.14 328.544C1476.71 336.451 1503.8 356.737 1523.27 387.607L1623.05 342.377L1445.14 328.544ZM1524.52 388.067L1617.12 410.973L1624.36 342.809L1524.52 388.067ZM1619.44 397.994C1623.51 381.869 1631.98 364.992 1643.79 349.496L1625.31 342.697L1619.44 397.994ZM1644.39 348.717C1648.55 343.316 1653.11 338.085 1658.03 333.127C1661.97 329.154 1666.01 325.463 1670.13 322.063L1626.15 342.002L1644.39 348.717ZM1665.09 362.776C1673.41 350.069 1684 338.207 1695.81 328.205L1645.52 349.365L1665.09 362.776ZM1666.01 363.02L1704.56 366.448L1698.06 327.501C1685.71 337.653 1674.65 349.881 1666.01 363.02ZM1705.4 365.865C1708.84 361.761 1712.63 357.958 1716.73 354.511C1729.49 343.814 1744.12 337.869 1758.14 337.409L1698.95 327.201L1705.4 365.865ZM1717.34 355.225C1713.29 358.625 1709.55 362.372 1706.16 366.42L1852.17 355.028L1768.56 339.043C1751.82 336.076 1733.15 341.983 1717.34 355.225ZM1705.24 367.537C1691.67 384.207 1683.85 405.61 1683.77 427.464L2075.43 524.366L1705.24 367.537ZM1673.55 464.739L1894.86 632.603L1901.22 633.12L2079.71 526.507L1673.55 464.739ZM2081.23 525.775L2377.86 531.025L1916.41 400.708L2081.23 525.775ZM2085.22 526.78L2553.89 642.737L2386.03 533.326L2381.43 532.02L2085.22 526.78ZM2556.62 643.394L2814.54 654.335L2389.06 534.18L2556.62 643.394ZM2556.4 644.324H2556.32L2556.28 644.296L2091.81 529.381L2556.5 686.755L2556.67 686.727L2556.72 686.793L2812.76 707.745L2556.4 644.324ZM2556.27 687.75L2079.17 771.767C2276.45 842.382 2436.61 899.745 2556.26 942.646C2638.99 972.304 2703.01 995.295 2746.54 1010.96C2769.94 1019.38 2787.88 1025.85 2799.84 1030.18C2810.25 1033.96 2815.01 1035.69 2817.19 1036.55L2556.27 687.75ZM1890.97 750.11L1538.08 708.506L1620.92 824.031L2811.22 1035.78L1890.97 750.11ZM1536.75 708.252L1446.32 648.954L1357.31 738.446L1358.03 739.254L1619.45 823.571L1536.75 708.252ZM1445.51 648.428L1444.36 647.677L1142.8 498.727L1356.68 737.742L1445.51 648.428ZM1140.55 497.61L1138.53 496.614L927.968 476.516L1355.93 738.502L1356.01 738.418L1140.55 497.61ZM926.756 476.873L975.477 658.026L1353.44 738.07L926.756 476.873ZM925.515 476.113L901.375 461.34L890.672 483.025C884.875 498.089 881.661 514.543 881.661 531.776C881.661 566.882 894.882 599.235 916.908 622.902L919.755 625.738L925.515 476.113ZM853.415 561.049L865.696 601.405L917.998 625.297L853.415 561.049ZM864.916 602.09L838.502 590.022C846.489 614.722 860.443 636.482 879.688 653.584C880.092 653.941 880.505 654.279 880.909 654.636L864.916 602.09ZM864.55 600.888L852.315 560.674L838.361 588.923L864.55 600.888ZM851.911 559.359L834.471 502.043C832.018 514.158 830.703 526.62 830.703 539.289C830.703 556.326 833.127 572.657 837.816 587.9L851.911 559.359ZM829.773 539.289C829.773 529.794 830.562 520.262 832.084 510.786L820.282 570.094C820.31 570.216 820.338 570.338 820.367 570.45L836.688 587.393C832.141 572.291 829.773 556.128 829.773 539.289ZM819.417 571.089L803.105 575.879L827.95 595.047C824.37 587.318 821.522 579.325 819.417 571.089ZM818.995 569.474C818.976 569.408 818.957 569.342 818.948 569.276C813 544.652 813.639 517.848 820.846 489.411L572.708 372.12C678.599 457.884 802.381 557.706 818.205 568.995L818.995 569.474ZM819.756 487.861L686.586 321.8L570.735 370.157L819.756 487.861ZM685.299 321.322L418.922 247.138C429.794 256.144 494.904 309.094 569.607 369.613L685.299 321.322ZM418.02 247.617L455.033 349.703L567.878 369.359C492.686 308.474 428.028 255.91 418.02 247.617ZM457.073 351.008L492.564 372.43L565.078 369.829L457.073 351.008ZM492.366 373.106L440.957 407.827L514.016 417.716L492.366 373.106ZM489.867 373.679L392.414 401.253L439.557 407.639L489.867 373.679ZM486.86 373.548C463.105 373.961 442.292 369.228 425.453 359.667L391.456 400.539L486.86 373.548ZM412.589 309.375L382.341 275.876L416.404 245.983L404.545 218.644C399.95 224.054 395.948 229.98 392.649 236.338L390.084 241.7C384.962 253.308 382.115 266.137 382.115 279.614C382.115 306.164 391.709 329.896 409.121 346.453C413.829 350.924 419.063 354.84 424.767 358.193L412.589 309.375ZM385.451 251.383L375.65 271.847C375.622 272.129 375.613 272.392 375.594 272.673L381.289 275.237C381.655 266.973 383.093 258.971 385.451 251.383ZM380.245 243.053C385.423 225.18 395.196 212.859 406.058 204.36L328.883 246.884L374.485 272.129L374.739 271.593C375.491 262.925 377.239 253.43 380.245 243.053ZM411.452 200.312L293.787 189.117L328.066 246.246L411.452 200.312ZM292.659 189.061L234.437 194.761L326.6 245.635L292.659 189.061ZM235.584 196.461L288.355 249.11L326.29 246.527L235.584 196.461ZM230.838 256.05L213.615 268.072L277.192 264.972L230.838 256.05ZM280.838 264.719L287.04 250.228L233.949 255.694L280.838 264.719ZM229.983 255.506L197.997 226.383L212.252 267.884L229.983 255.506ZM229.843 254.106L221.545 224.401L198.129 225.227L229.843 254.106ZM231.083 255.046L281.374 249.871C267.645 249.091 255.307 245.926 244.802 240.536C235.96 236.338 228.508 230.966 222.597 224.664L231.083 255.046ZM286.307 249.091L266.574 238.047L222.701 220.823C235.593 238.009 258.239 248.641 286.307 249.091ZM257.252 233.37C244.623 225.706 234.447 213.319 232.615 196.161L221.893 219.489L257.252 233.37ZM232.361 194.47L214.113 165.366C212.064 171.48 210.955 177.979 210.955 184.722C210.955 197.569 214.61 209.102 221.207 218.738L232.361 194.47ZM232.37 192.714C232.069 185.154 233.338 176.739 236.636 167.46C239.709 158.829 244.689 152.528 250.496 147.945L214.667 164.474L232.37 192.714ZM254.847 144.902C258.474 142.667 262.289 140.967 266.076 139.689L261.584 122.522C239.793 128.025 222.278 143.465 214.836 163.356L254.847 144.902ZM185.744 103.842C204.274 147.766 209.207 160.116 210.495 163.666C218.012 142.911 236.204 126.851 258.822 121.451L185.744 103.842ZM184.71 103.814L124.543 134.562C147.603 142.817 203.006 162.52 209.809 164.408C207.817 158.792 191.457 119.808 184.71 103.814ZM182.728 103.776C143.882 106.19 88.0374 110.003 81.751 111.365C85.115 113.947 107.836 126.053 123.265 134.064L123.322 134.008L123.416 134.083L182.728 103.776ZM81.6289 112.323C83.5364 122.202 89.7664 130.824 98.8528 135.689L113.85 143.841L122.598 134.768C108.616 127.509 86.8252 116.032 81.6289 112.323ZM183.019 102.818L114.611 72.1645C96.0715 72.2114 81.0085 87.3318 81.0085 105.908C81.0085 107.495 81.1213 109.054 81.3376 110.595C89.2966 108.754 158.221 104.359 183.019 102.818ZM66.3499 104.734C66.3499 100.095 67.1392 95.6339 68.5769 91.4734L45.8181 86.4396L67.6372 114.896C66.8008 111.646 66.3499 108.247 66.3499 104.734ZM67.3645 90.2431L17.3555 49.3149L44.9348 85.2844L67.3645 90.2431ZM102.32 63.9657L104.021 48.0752C100.817 46.9764 76.4324 38.6461 52.3486 30.3346C23.9802 20.5486 10.9941 15.9844 5.03662 13.7774C20.9546 22.6242 77.8889 51.6158 102.32 63.9657ZM104.613 47.2863L150.177 48.9674C103.034 36.8617 23.2097 16.576 4.51978 12.6034C19.3289 18.0505 73.9893 36.8242 104.613 47.2863ZM78.1519 29.6678C101.033 35.4436 124.017 41.3039 138.732 45.0699L102.621 33.5747L102.048 33.5465L102.095 33.415L46.6919 15.7778C30.4827 14.2939 15.9365 13.0073 7.68628 12.3592C16.4441 14.3033 35.6414 18.9427 78.1519 29.6678ZM51.0427 16.1722L102.424 32.5228L106.511 21.3657C91.2417 19.91 70.2871 17.9378 51.0427 16.1722ZM103.373 32.6731L138 34.589L107.441 21.5911L103.373 32.6731ZM111.388 22.2485L140.762 34.7486L191.391 37.5473L111.388 22.2485ZM143.29 35.8193L172.626 48.3006C175.52 49.0425 178.292 50.2071 180.848 51.7473C184.363 45.7461 189.756 41.2194 196.033 38.74L143.29 35.8193ZM207.225 37.5285C203.898 37.5285 200.647 38.092 197.584 39.1533L222.457 41.7735C217.88 39.003 212.684 37.5285 207.225 37.5285ZM225.868 44.1214L225.84 44.112L225.83 44.1026C224.111 43.6894 198.072 37.7821 188.121 57.4198L285.442 81.4996L225.868 44.1214ZM228.405 44.6097L288.261 82.1664L352.506 68.3327L228.405 44.6097ZM354.781 68.8023L291.654 82.3918L386.729 87.8765L354.781 68.8023ZM357.384 69.2719L388.75 88.0079L484.154 93.5114L357.384 69.2719ZM490.985 94.8356L390.497 89.041L442.808 120.277L442.865 120.099L443.306 120.54C450.176 118.174 457.533 116.868 465.163 116.868C466.3 116.812 467.447 116.784 468.602 116.784C472.944 116.784 477.097 117.093 481.062 117.676L481.26 117.525L481.448 117.741C495.289 119.864 506.734 125.536 515.153 134.515L490.985 94.8356ZM519.222 139.398L579.558 154.303L492.78 95.9626L519.222 139.398ZM493.428 95.277L580.394 153.739C581.625 144.122 586.681 126.57 606.639 116.924L493.428 95.277ZM581.231 154.613L581.221 154.725L584.792 155.608C587.141 134.956 602.956 118.38 624.089 112.473C589.378 118.577 582.518 143.193 581.231 154.613ZM641.228 111.064C612.371 111.064 588.542 130.298 585.704 155.824L607.842 161.299C620.255 120.437 669.428 127.988 669.945 128.072L682.057 130.382C672.397 117.751 658.321 111.064 641.228 111.064ZM682.997 131.519L669.785 128.993C669.296 128.908 621.082 121.517 608.81 161.384L722.143 160.06L682.997 131.519ZM685.148 131.932L723.694 160.032L807.982 155.411L685.148 131.932ZM811.44 156.162L725.545 160.867L765.011 178.26C768.384 179.322 771.664 180.59 774.821 182.064L814.832 179.594L811.44 156.162ZM812.398 156.256L815.771 179.547L916.006 176.063L812.398 156.256ZM816.702 180.458L879.65 228.289C884.677 212.53 895.596 196.414 909.701 183.961C912.623 181.378 915.602 179.031 918.609 176.908L816.702 180.458ZM910.321 184.665C896.667 196.724 886.03 212.239 880.909 227.5L906.797 203.852C906.872 203.749 906.947 203.646 907.032 203.552L919.069 177.753C916.109 179.829 913.187 182.13 910.321 184.665ZM909.55 200.349C915.78 192.817 923.326 185.999 931.538 180.449L920.46 176.964L909.55 200.349ZM955.951 164.342C944.891 164.342 932.892 168.503 921.268 176.232L932.544 179.782C944.497 171.902 957.746 166.737 970.243 165.995C965.545 164.896 960.743 164.342 955.951 164.342ZM972.489 166.859C959.785 167.066 946.169 172.081 933.869 180.007L973.936 185.943C974.134 185.971 974.331 185.99 974.528 186.018L972.489 166.859ZM973.429 166.831L975.477 186.027L1017.17 178.392C1005.13 171.123 989.723 166.85 973.429 166.831ZM1018.38 179.124L977.62 186.591L1036.8 197.908C1032.75 190.554 1026.36 184.168 1018.38 179.124ZM1037.69 199.053L963.205 224.016L1196.05 250.012L1037.69 199.053ZM1045.13 200.453L1200.75 250.538L1454.75 278.9L1454.81 278.909L1624.88 341.541L1671.81 320.27L1045.13 200.453ZM1645.96 348.162L1696.93 326.722L1673.59 320.617C1663.49 328.506 1654.08 337.888 1645.96 348.162ZM1734.78 295.955C1715.02 295.955 1693.64 305.234 1674.61 319.828L1674.91 319.885L1674.77 319.95L1698.33 326.111C1716.48 311.385 1737.31 301.073 1757.36 298.688C1749.93 296.875 1742.35 295.955 1734.78 295.955ZM1759.58 299.411C1739.28 301.242 1718 311.46 1699.48 326.337L1762.74 337.25L1759.58 299.411ZM1766.04 299.111C1764.21 299.111 1762.36 299.186 1760.52 299.327L1763.72 337.522C1765.4 337.644 1767.08 337.832 1768.73 338.123L1854.85 354.586C1838.34 320.861 1803.59 299.111 1766.04 299.111ZM1855.56 355.704L1707.07 367.284L2077.79 524.338L1855.56 355.704ZM1857.58 356.061L1914.33 399.121L2211.92 423.792L1857.58 356.061ZM2220.54 425.455L1918.97 400.445L2381.56 531.081L2382.62 531.1L2220.54 425.455ZM2222.94 425.905L2384.39 531.137L2813.07 538.716L2222.94 425.905ZM2818.06 539.749L2385.88 532.105L2386.42 532.462L2818.06 654.354V539.749ZM2818.06 655.425L2561.13 644.531L2818.06 708.092V655.425ZM2818.06 709.126L2557.47 687.788L2818.06 1036.15V709.126ZM2818.06 1077.54V1038.09C2816.4 1038.4 2811.69 1038.84 2798.28 1040.06C2786.05 1041.18 2768.07 1042.77 2744.84 1044.79C2705.72 1048.19 2651.18 1052.85 2582.74 1058.64C2487.09 1066.74 2390.43 1074.83 2358.21 1077.53H2818.06V1077.54ZM2347.01 1077.53C2355.65 1076.8 2776.28 1041.65 2815.46 1037.49L1626.35 825.947L2347.01 1077.53ZM2344.19 1077.54L1622.39 825.552L1868.56 1077.54H2344.19ZM1660.92 1077.54H1867.24L1621.35 825.834L1660.92 1077.54ZM1620.24 824.81L1359.26 740.625L1659.8 1076.5L1620.24 824.81ZM1357.49 740.052L1356.31 739.667L1314.19 868.387L1658.08 1075.98L1357.49 740.052ZM983.267 766.743L1110.98 748.561L1023.17 742.296L983.267 766.743ZM1021.51 742.212L996.977 740.963L982.422 766.16L1021.51 742.212ZM982.055 767.86L1060.09 850.59L1114.55 749.002L982.055 767.86ZM1060.96 850.966L1152.83 857.117L1115.31 749.565L1060.96 850.966ZM1153.84 857.183L1311.26 867.73L1116.51 750.167L1153.84 857.183ZM1310.01 868.584L1153.58 858.103L985.72 920.322L1310.01 868.584ZM1151.29 857.953L1060.37 851.867L983.277 920.228L1151.29 857.953ZM981.557 920.491L1058.86 851.933L981.557 856.742V920.491ZM981.557 855.802L1059.16 850.975L981.557 768.705V855.802ZM956.505 805.623L980.617 917.148V856.413L956.505 805.623ZM980.617 854.225V768.931L955.735 801.811L980.617 854.225ZM980.335 920.266L955.228 804.121L939.901 885.179L980.335 920.266ZM939.854 880.342L954.711 801.764L939.854 738.653V880.342ZM955.425 800.674L980.439 767.616L940.155 735.807L955.425 800.674ZM980.956 766.818L995.943 740.869L940.945 735.234L980.956 766.818ZM943.331 734.539L996.657 740.005L1059.44 718.63L943.331 734.539ZM999.185 740.136L1022.93 741.339L1060.05 719.409L999.185 740.136ZM1024.58 741.451L1112.45 747.715L1063.74 718.31L1024.58 741.451ZM1313.37 867.87L1355.38 739.479L1023.05 692.653L1313.37 867.87ZM1021.02 691.423L1342.63 736.746L977.131 659.341L1021.02 691.423ZM1019.59 691.526L974.942 658.89H886.03C920.206 685.863 967.236 697.405 1019.59 691.526ZM882.234 655.782C883.099 656.514 883.982 657.237 884.865 657.951H971.662C952.39 652.297 934.564 641.666 919.952 627.232L866.062 602.607L882.234 655.782ZM853.828 632.228C862.905 642.286 872.612 650.56 881.68 657.181L881.417 656.317C880.627 655.641 879.838 654.974 879.058 654.279C859.475 636.867 845.324 614.684 837.337 589.487L837.093 589.374L837.158 589.233L820.855 572.31C827.687 597.883 840.729 617.709 853.828 632.228ZM828.231 596.456L801.987 576.198L619.804 629.701L828.231 596.456ZM800.295 575.719L693.559 564.984L614.673 630.237L800.295 575.719ZM613.085 630.331L692.234 564.862L613.649 557.997L613.085 558.241V630.331ZM613.085 557.218L613.358 557.096L705.492 503.742L613.095 516.9V557.218H613.085ZM702.692 503.188L647.722 500.878L615.735 515.576L702.692 503.188ZM590.505 568.178L612.146 628.631V558.664L590.505 568.178ZM612.146 557.631V518.722L590.834 567.004L612.146 557.631ZM590.393 612.524L611.61 629.889L590.393 570.619V612.524ZM590.393 565.698L612.042 516.637L590.393 498.971V565.698ZM612.681 515.942L645.664 500.793L591.313 498.502L612.681 515.942ZM595.166 497.722L647.543 499.929L676.889 486.443L595.166 497.722ZM649.601 500.014L706.056 502.39L679.426 486.312L649.601 500.014ZM810.754 564.496C802.551 558.176 786.839 545.751 756.526 521.474C723.017 494.642 675.677 456.512 619.644 411.217C602.721 397.543 585.835 383.878 569.428 370.589L494.039 373.294L810.754 564.496ZM494.049 374.412L515.144 417.866L580.751 426.751L494.049 374.412ZM578.703 427.418L514.843 418.768L398.447 440.491L578.703 427.418ZM511.874 418.373L439.792 408.616L392.264 440.697L511.874 418.373ZM390.591 440.688L438.392 408.428L390.591 401.957V440.688ZM390.591 400.116L424.231 359.676L390.591 356.821V400.116ZM389.651 440.556V403.704L378.075 430.695L389.651 440.556ZM377.971 428.535L389.586 401.469L377.971 384.818V428.535ZM377.971 383.174L389.097 399.121L377.971 352.257V383.174ZM389.651 397.402V356.568L378.225 349.271L389.651 397.402ZM390.103 355.732L395.336 351.825L379.729 349.102L390.103 355.732ZM381.345 348.435L396.38 351.055L401.886 346.951L381.345 348.435ZM397.648 351.28L413.942 354.126C410.785 352.267 407.214 349.881 403.54 346.885L397.648 351.28ZM393.373 335.55C402.713 346.744 413.547 353.178 419.984 356.305C415.868 353.563 412.025 350.51 408.482 347.139C391.249 330.769 381.608 307.45 381.204 281.332L377.511 302.952C380.753 317.274 387.011 327.933 393.373 335.55ZM376.975 300.463L381.119 276.195L375.519 273.669C374.805 283.718 375.434 292.612 376.975 300.463ZM374.607 273.256L374.053 273.012L374.072 272.974L330.011 248.584L376.242 301.637C374.523 293.391 373.818 283.953 374.607 273.256ZM374.664 301.252L327.709 247.363L289.69 249.955L374.664 301.252ZM288.121 250.106L281.787 264.897L327.051 273.613L288.121 250.106ZM324.072 273.998L281.12 265.733L204.34 278.393L324.072 273.998ZM272.982 266.118L212.167 269.086L198.918 278.337L272.982 266.118ZM197.433 278.224L211.463 268.428L197.433 227.604V278.224ZM192.387 271.978L195.723 276.608L192.387 231.961V271.978ZM196.494 274.223V224.983L192.491 220.663L196.494 274.223ZM197.161 224.316L216.856 223.622L193.177 220.025L197.161 224.316ZM197.302 219.705L221.432 223.368C220.239 222.025 219.121 220.635 218.068 219.208L197.302 219.705ZM229.034 229.444C226.018 226.589 223.34 223.481 221.01 220.156L220.737 219.762C213.765 209.647 210.015 197.616 210.015 184.731C210.015 177.622 211.246 170.775 213.473 164.361L213.295 164.07L213.643 163.91C220.446 144.845 236.326 129.706 256.407 123.057C228.283 130.937 207.695 155.674 207.695 184.91C207.695 202.425 215.296 217.977 229.034 229.444ZM209 201.044C207.516 195.907 206.745 190.507 206.745 184.91C206.745 178.082 207.854 171.499 209.903 165.31C203.748 163.76 162.168 149.025 125.934 136.055L209 201.044ZM172.053 179.378L171.997 178.908L203.513 197.936L123.416 135.275L114.686 144.329L171.339 178.523L169.845 178.721L142.66 162.314L138.507 182.787L169.845 178.721L171.141 179.5L140.527 183.473L201.737 198.001L201.69 197.936L171.141 179.491L172.053 179.378ZM135.171 157.787L115.297 145.794L104.031 158.181L135.171 157.787ZM113.756 158.998L140.48 160.989L136.618 158.707L113.756 158.998ZM108.466 162.605L137.595 182.543L141.749 162.079L108.466 162.605ZM199.698 198.48L137.99 183.83L108.024 201.411L199.698 198.48ZM106.68 201.119L137.05 183.294L106.849 162.624H106.68V201.119ZM106.408 161.694L131.91 161.29L104.115 159.214L106.408 161.694ZM105.741 162.351L103.532 159.966L105.741 189.399V162.351ZM103.429 197.278L105.618 200.312L103.429 171.207V197.278ZM102.978 157.947L114.479 145.296L113.85 144.911C111.614 145.287 109.33 145.475 107.047 145.475C100.892 145.475 95.0566 144.094 89.8323 141.643L102.978 157.947ZM87.793 140.61L87.7646 140.591H78.8005L100.375 156.219L87.7742 140.61C87.7834 140.61 87.793 140.61 87.793 140.61ZM102.49 175.781V159.553L78.8662 175.781H102.49ZM77.8232 175.358L101.757 158.923L77.8232 154.613V175.358ZM77.8232 153.655L101.014 157.834L77.8232 141.042V153.655ZM75.709 160.886L76.8835 169.404V157.13L75.709 160.886ZM76.8552 154.049L73.0591 141.727L75.3987 158.698L76.8552 154.049ZM76.7236 175.142L75.0513 162.99L72.3542 171.621L76.7236 175.142ZM72.2791 168.709L74.7505 160.811L72.2791 142.911V168.709ZM76.8835 150.931V140.366L72.6738 137.285L76.8835 150.931ZM77.5037 139.652H84.1941L74.0176 137.097L77.5037 139.652ZM75.6055 136.525L84.8237 138.844C83.7244 138.121 82.6531 137.351 81.6289 136.525H75.6055ZM79.054 132.956L80.3979 134.224C82.6907 136.299 87.9153 139.614 87.9153 139.614L88.3945 139.868C93.9573 142.845 100.309 144.536 107.047 144.536C108.87 144.536 110.693 144.404 112.487 144.16L98.4019 136.515C88.8735 131.425 82.4087 122.296 80.5952 111.881L69.3662 117.385C71.3584 123.32 74.7126 128.636 79.054 132.956ZM41.9653 114.248L33.9688 123.79L76.4419 132.627L41.9653 114.248ZM74.9854 133.284L33.2734 124.607L26.0005 133.284H74.9854ZM25.4651 132.467L32.5686 123.987L25.4651 100.771V132.467ZM24.3748 132.646L22.1572 116.577L19.9678 129.086L24.3748 132.646ZM24.5254 126.908V103.034L22.6833 113.553L24.5254 126.908ZM19.9209 123.884L21.7344 113.543L19.9209 100.414V123.884ZM22.27 110.51L24.4878 97.8315L20.0713 94.5914L22.27 110.51ZM25.1548 97.1553H32.3057L21.6216 94.5726L25.1548 97.1553ZM23.3882 94.0279L33.687 96.5167L29.5337 94.0091V94.0185H23.3882V94.0279ZM66.8853 115.469L44.3899 86.1202L3.16675 77.0011L66.8853 115.469ZM43.5066 84.9651L14.6118 47.2769L1.15576 75.5924L43.5066 84.9651ZM0.948975 73.8455L13.9729 46.4411L0.948975 29.4612V73.8455ZM0.948975 27.7426L95.7988 61.7211C86.5056 57.0065 68.8682 48.047 51.3809 39.0781C13.5405 19.6658 3.57056 14.1624 0.948975 12.4062V27.7426ZM0.948975 11.0163C2.99756 11.0069 10.8342 11.561 42.5574 14.4442L0.948975 1.20211V11.0163Z" fill="#C5C5C5"/>
</svg>
