<svg width="40" height="33" viewBox="0 0 40 33" fill="none" xmlns="http://www.w3.org/2000/svg">
<path d="M39.0217 23.49L32.5814 18.7309C33.7383 16.8115 34.3465 14.6247 34.3465 12.362C34.3465 6.80886 30.6104 1.90628 25.261 0.439442C24.852 0.327808 24.4292 0.568181 24.3169 0.977204C24.2047 1.38653 24.4457 1.80905 24.8547 1.92129C29.5388 3.20568 32.8101 7.49907 32.8101 12.362C32.8101 14.2946 32.3035 16.1633 31.3393 17.8129L23.1268 11.7441C22.8936 11.5719 22.5833 11.5455 22.3243 11.676C22.0653 11.8066 21.9021 12.0718 21.9021 12.362V23.186C18.771 23.1626 15.8667 21.8218 13.8255 19.476C16.0425 17.8882 17.4902 15.2909 17.4902 12.362C17.4902 9.43405 16.0434 6.83767 13.8276 5.24989C15.2218 3.65491 17.0742 2.48246 19.108 1.92339C19.517 1.81086 19.7574 1.38803 19.6451 0.979005C19.5326 0.569681 19.1092 0.329609 18.7004 0.441843C16.2853 1.10594 14.0931 2.52477 12.482 4.45705C11.3482 3.91869 10.0812 3.6171 8.74493 3.6171C3.92308 3.6171 0 7.54018 0 12.362C0 17.1842 3.92308 21.1073 8.74493 21.1073C10.0812 21.1073 11.3485 20.8054 12.4823 20.267C14.823 23.0837 18.2257 24.6984 21.9021 24.7225V32.2325C21.9021 32.5656 22.1167 32.8609 22.4339 32.9635C22.5119 32.9887 22.5914 33.0007 22.6703 33.0007C22.9122 33.0007 23.1457 32.8861 23.293 32.6827L28.9353 24.8761H38.5652C38.8968 24.8761 39.1909 24.6633 39.2947 24.3482C39.3986 24.0334 39.2884 23.6871 39.0217 23.49ZM1.53646 12.362C1.53646 8.38734 4.77024 5.15356 8.74493 5.15356C12.7199 5.15356 15.9537 8.38734 15.9537 12.362C15.9537 16.3367 12.7199 19.5708 8.74493 19.5708C4.77024 19.5708 1.53646 16.3367 1.53646 12.362ZM28.5428 23.3396C28.2961 23.3396 28.0645 23.4582 27.9201 23.6577L23.4386 29.8582V13.885L36.2329 23.3396H28.5428Z" fill="black"/>
<path d="M4.40462 11.5938H4.3278C3.90377 11.5938 3.55957 11.938 3.55957 12.362C3.55957 12.7863 3.90377 13.1302 4.3278 13.1302H4.40462C4.82895 13.1302 5.17286 12.7863 5.17286 12.362C5.17286 11.938 4.82895 11.5938 4.40462 11.5938Z" fill="#FFA654"/>
<path d="M7.55404 11.5938H7.47722C7.05319 11.5938 6.70898 11.938 6.70898 12.362C6.70898 12.7863 7.05319 13.1302 7.47722 13.1302H7.55404C7.97837 13.1302 8.32227 12.7863 8.32227 12.362C8.32227 11.938 7.97837 11.5938 7.55404 11.5938Z" fill="#FFA654"/>
<path d="M10.7039 11.5938H10.6271C10.2031 11.5938 9.85889 11.938 9.85889 12.362C9.85889 12.7863 10.2031 13.1302 10.6271 13.1302H10.7039C11.1283 13.1302 11.4722 12.7863 11.4722 12.362C11.4722 11.938 11.1283 11.5938 10.7039 11.5938Z" fill="#FFA654"/>
<path d="M14.6221 12.362C14.6221 11.938 14.2782 11.5938 13.8538 11.5938H13.777C13.353 11.5938 13.0088 11.938 13.0088 12.362C13.0088 12.7863 13.353 13.1302 13.777 13.1302H13.8538C14.2782 13.1302 14.6221 12.7863 14.6221 12.362Z" fill="#FFA654"/>
<path d="M19.1235 11.8188C18.9807 11.9617 18.8984 12.1591 18.8984 12.362C18.8984 12.5639 18.9807 12.762 19.1235 12.9051C19.2663 13.0477 19.4647 13.1302 19.6667 13.1302C19.8686 13.1302 20.067 13.048 20.2098 12.9051C20.3527 12.762 20.4349 12.5639 20.4349 12.362C20.4349 12.1597 20.3527 11.9617 20.2098 11.8188C20.067 11.676 19.8686 11.5938 19.6667 11.5938C19.4647 11.5938 19.2663 11.676 19.1235 11.8188Z" fill="#FFA654"/>
<path d="M21.9518 1.53646H21.9536H21.9866C22.411 1.53556 22.754 1.19076 22.7531 0.766431C22.7522 0.342703 22.4086 0 21.9851 0C21.9845 0 21.9836 0 21.9833 0H21.95C21.526 0.00120036 21.1827 0.345704 21.1836 0.770032C21.1845 1.19376 21.5284 1.53646 21.9518 1.53646Z" fill="#FFA654"/>
</svg>
