<svg width="30" height="33" viewBox="0 0 30 33" fill="none" xmlns="http://www.w3.org/2000/svg">
<path d="M29.5196 16.5C29.5196 16.2739 29.4013 16.0647 29.2079 15.9478L24.0285 12.8261L29.2079 9.70418C29.4013 9.58761 29.5196 9.37814 29.5196 9.1523C29.5196 8.92646 29.4013 8.71699 29.2079 8.60017L23.7686 5.32211C23.464 5.13807 23.0677 5.23651 22.8839 5.54115C22.7001 5.84605 22.7983 6.24234 23.1032 6.42613L27.6265 9.1523L22.4554 12.269C22.4534 12.2702 22.4511 12.2717 22.4491 12.273L14.7598 16.9076L7.06896 12.272C7.06745 12.2712 7.06619 12.2702 7.06493 12.2695L1.89306 9.1523L14.7598 1.39701L18.6862 3.76365C18.9911 3.94745 19.3871 3.84926 19.5709 3.54436C19.7547 3.23947 19.6565 2.84343 19.3516 2.65964L15.0926 0.0923368C14.8879 -0.0307789 14.6319 -0.0307789 14.4272 0.0923368L0.311944 8.60017C0.118332 8.71699 0 8.92621 0 9.1523C0 9.37814 0.118332 9.58761 0.311944 9.70418L5.49112 12.8261L0.311944 15.9478C0.118332 16.0647 0 16.2739 0 16.5C0 16.7258 0.118332 16.9353 0.311944 17.0519L5.49112 20.1738L0.311944 23.2955C0.118332 23.4123 0 23.6215 0 23.8476C0 24.0735 0.118332 24.283 0.311944 24.3995L5.26276 27.3838C5.36674 27.4464 5.48155 27.4764 5.59484 27.4764C5.81338 27.4764 6.02638 27.3651 6.14748 27.1645C6.33127 26.8596 6.23308 26.4633 5.92819 26.2797L1.89306 23.8476L6.7399 20.9263L14.4272 25.5599C14.5294 25.6216 14.6447 25.6523 14.7598 25.6523C14.8751 25.6523 14.9904 25.6216 15.0926 25.5599L22.7799 20.9263L27.6265 23.8476L14.7598 31.6029L10.3458 28.9422C10.0409 28.7587 9.64482 28.8566 9.46103 29.1615C9.27724 29.4664 9.37543 29.8627 9.68032 30.0462L14.427 32.9076C14.5294 32.9693 14.6445 33 14.7598 33C14.8749 33 14.9902 32.9693 15.0924 32.9076L29.2076 24.3998C29.4013 24.283 29.5196 24.0735 29.5196 23.8476C29.5196 23.6218 29.4013 23.4123 29.2076 23.2958L24.0285 20.1738L29.2079 17.0519C29.4013 16.9353 29.5196 16.7258 29.5196 16.5ZM22.4602 19.6139C22.4536 19.6176 22.4474 19.6214 22.4411 19.6254L14.7598 24.2553L7.06871 19.6197C7.06745 19.6187 7.06644 19.6179 7.06518 19.6174L1.89306 16.5L6.7399 13.5787L14.4272 18.2123C14.5294 18.2739 14.6447 18.3047 14.7598 18.3047C14.8751 18.3047 14.9904 18.2739 15.0926 18.2123L22.7799 13.5787L27.6265 16.5L22.4602 19.6139Z" fill="black"/>
<path d="M21.231 5.18164C21.4012 5.18164 21.5668 5.11266 21.6874 4.99282C21.8073 4.87272 21.8755 4.70655 21.8755 4.53711C21.8755 4.36742 21.8073 4.20125 21.6874 4.08141C21.5668 3.96156 21.4012 3.89258 21.231 3.89258C21.0615 3.89258 20.8953 3.96156 20.7755 4.08141C20.6554 4.202 20.5864 4.36742 20.5864 4.53711C20.5864 4.70655 20.6554 4.87272 20.7755 4.99282C20.8953 5.11266 21.0615 5.18164 21.231 5.18164Z" fill="#B2FFA6"/>
<path d="M7.79883 27.5273C7.62939 27.5273 7.46297 27.5956 7.34312 27.7154C7.22328 27.836 7.1543 28.0017 7.1543 28.1719C7.1543 28.3413 7.22328 28.5077 7.34312 28.6276C7.46297 28.7474 7.62939 28.8164 7.79883 28.8164C7.96827 28.8164 8.13469 28.7474 8.25453 28.6276C8.37438 28.5077 8.44336 28.3413 8.44336 28.1719C8.44336 28.0017 8.37438 27.836 8.25453 27.7154C8.13469 27.5956 7.96827 27.5273 7.79883 27.5273Z" fill="#B2FFA6"/>
</svg>
